#!OML:ASF F:\VICON\USERDATA\INSTALL\Justin_Nancy\Justin_Nancy.ASF
:FULLY-SPECIFIED
:DEGREES
280
root 0.838298 15.0209 -13.5794 33.1392 1.61105 0.212938
lowerback 44.7752 -0.515391 3.97738
upperback 2.44818 1.84599 2.48368
thorax -18.5741 0.515844 -0.204842
lowerneck -24.3359 -3.271 -7.74963
upperneck -14.5666 -2.02097 8.50052
head -0.543515 -0.540151 3.81635
rclavicle 1.43125e-014 4.37326e-015
rhumerus -13.6881 -4.68728 -80.7356
rradius 85.5955
rwrist -17.1743
rhand -13.7052 26.1049
rfingers 7.12502
rthumb 12.4133 -3.50654
lclavicle 1.43125e-014 4.37326e-015
lhumerus -11.1346 2.36524 89.3033
lradius 81.7775
lwrist 19.5068
lhand -22.6392 13.7634
lfingers 7.12502
lthumb 3.7915 43.7094
rfemur -63.7666 -2.98472 19.2028
rtibia 80.3558
rfoot -29.1635 -11.8347
rtoes -19.9832
lfemur -65.3306 -1.04606 -16.225
ltibia 78.7181
lfoot -32.2307 7.65799
ltoes -26.9602
281
root 0.813549 15.023 -13.3937 32.6026 1.68724 0.268839
lowerback 43.0715 -0.379692 3.7241
upperback 2.29013 1.80876 2.48176
thorax -18.2231 0.533198 -0.059513
lowerneck -24.578 -3.27028 -7.61313
upperneck -13.2454 -2.09049 8.69426
head -0.0978622 -0.567123 3.83515
rclavicle 7.95139e-015 3.97569e-014
rhumerus -12.7553 -2.59204 -80.2026
rradius 89.525
rwrist -17.0288
rhand -12.4305 26.0049
rfingers 7.12502
rthumb 13.6421 -3.52807
lclavicle 7.95139e-015 3.97569e-014
lhumerus -9.40986 0.764162 88.4511
lradius 85.9057
lwrist 17.8632
lhand -19.9379 11.2468
lfingers 7.12502
lthumb 6.39977 41.1301
rfemur -62.2071 -2.6333 19.1613
rtibia 80.3143
rfoot -29.3872 -12.6629
rtoes -21.0262
lfemur -64.0177 -1.03118 -16.1242
ltibia 78.8452
lfoot -32.7225 7.54913
ltoes -28.7412
282
root 0.786616 15.0238 -13.1943 32.1121 1.72474 0.0994633
lowerback 41.5714 -0.213096 3.48044
upperback 1.9099 1.85548 2.52954
thorax -18.1921 0.57708 0.0976939
lowerneck -25.0866 -3.32411 -7.46212
upperneck -11.3935 -2.25463 8.93535
head 0.55146 -0.628807 3.85614
rclavicle -9.54166e-015 -1.27222e-014
rhumerus -12.134 -0.363484 -79.5001
rradius 93.5145
rwrist -16.2897
rhand -11.5447 25.5915
rfingers 7.12502
rthumb 14.4957 -3.88209
lclavicle -9.54166e-015 -1.27222e-014
lhumerus -8.29829 -0.880822 87.253
lradius 90.4142
lwrist 16.5695
lhand -22.0694 12.4083
lfingers 7.12502
lthumb 4.3418 42.3438
rfemur -60.6437 -2.14433 19.3701
rtibia 80.0888
rfoot -29.3068 -13.5258
rtoes -22.3305
lfemur -62.597 -0.777721 -15.8719
ltibia 78.8212
lfoot -32.7025 6.93987
ltoes -29.3046
283
root 0.760683 15.0424 -12.9544 31.606 1.60156 0.121936
lowerback 39.8715 0.00457725 3.00746
upperback 1.56202 1.8517 2.53071
thorax -18.0261 0.620813 0.351732
lowerneck -25.4633 -3.372 -7.27773
upperneck -9.55162 -2.44192 9.07048
head 1.18032 -0.703596 3.83845
rclavicle -1.27222e-014 -2.26615e-014
rhumerus -11.8314 1.64181 -78.6819
rradius 98.2877
rwrist -16.1361
rhand -9.00645 25.3159
rfingers 7.12502
rthumb 16.9402 -3.96531
lclavicle -1.27222e-014 -2.26615e-014
lhumerus -7.41947 -2.36804 85.72
lradius 95.0502
lwrist 15.3377
lhand -21.9928 12.8671
lfingers 7.12502
lthumb 4.41572 42.8011
rfemur -58.8068 -1.74699 19.3412
rtibia 79.654
rfoot -29.1983 -14.0795
rtoes -23.1972
lfemur -60.7459 -0.501143 -15.9472
ltibia 78.5394
lfoot -32.0928 5.69155
ltoes -28.4584
284
root 0.737992 15.0821 -12.6993 31.1164 1.4871 0.169023
lowerback 38.1127 0.227102 2.52922
upperback 1.23277 1.87391 2.57185
thorax -17.7818 0.679157 0.645837
lowerneck -25.6492 -3.43916 -7.30945
upperneck -7.97806 -2.59962 9.2665
head 1.7066 -0.756857 3.88173
rclavicle 1.11319e-014 -1.11319e-014
rhumerus -11.8801 3.57825 -77.6137
rradius 102.992
rwrist -14.8567
rhand -6.77744 23.9653
rfingers 7.12502
rthumb 19.0849 -5.11832
lclavicle 1.11319e-014 -1.11319e-014
lhumerus -6.43708 -3.62454 84.0358
lradius 99.4086
lwrist 14.4678
lhand -22.5991 13.6799
lfingers 7.12502
lthumb 3.83026 43.6253
rfemur -56.7949 -1.43469 19.2733
rtibia 78.9909
rfoot -29.0513 -14.1933
rtoes -23.2971
lfemur -58.7744 -0.310105 -16.016
ltibia 77.9838
lfoot -32.0901 4.76187
ltoes -26.8875
285
root 0.71483 15.1325 -12.4375 30.614 1.44174 -0.0189286
lowerback 36.4161 0.415962 2.1987
upperback 0.928116 1.94955 2.68698
thorax -17.6177 0.748891 0.90226
lowerneck -25.5993 -3.51146 -7.35986
upperneck -6.78789 -2.75955 9.54279
head 2.09014 -0.814447 3.95661
rclavicle -7.95139e-015 0
rhumerus -12.1454 5.51228 -76.5527
rradius 107.866
rwrist -13.9491
rhand -5.61614 22.981
rfingers 7.12502
rthumb 20.2013 -5.98854
lclavicle -7.95139e-015 0
lhumerus -5.78374 -4.73578 82.1409
lradius 103.994
lwrist 14.0643
lhand -22.8163 14.2524
lfingers 7.12502
lthumb 3.62054 44.2014
rfemur -54.6861 -1.04525 19.4678
rtibia 78.0521
rfoot -28.5615 -14.1722
rtoes -23.4435
lfemur -56.8172 0.0639942 -15.7983
ltibia 77.1842
lfoot -31.7604 3.98962
ltoes -26.8625
286
root 0.69974 15.205 -12.1361 30.1054 1.54443 -0.0264138
lowerback 34.4605 0.438925 2.01627
upperback 0.688439 1.85372 2.7183
thorax -17.1027 0.738031 1.08918
lowerneck -25.6315 -3.57697 -7.27046
upperneck -5.76643 -2.9396 9.78615
head 2.43231 -0.883593 3.99795
rclavicle -8.74653e-015 -2.14687e-014
rhumerus -12.6628 7.21674 -75.5302
rradius 112.821
rwrist -13.1475
rhand -5.015 22.7056
rfingers 7.12502
rthumb 20.779 -6.20187
lclavicle -8.74653e-015 -2.14687e-014
lhumerus -5.51276 -5.61432 80.0654
lradius 108.637
lwrist 13.6303
lhand -22.4639 13.6867
lfingers 7.12502
lthumb 3.96078 43.6297
rfemur -52.2279 -1.02452 19.5593
rtibia 76.8191
rfoot -28.0635 -13.9207
rtoes -23.7686
lfemur -54.5004 0.173286 -15.723
ltibia 76.0256
lfoot -31.307 3.65969
ltoes -28.0098
287
root 0.693336 15.3181 -11.794 28.6923 1.76596 0.159427
lowerback 33.49 0.297239 1.9703
upperback 0.65158 1.61406 2.66525
thorax -16.7253 0.645561 1.16592
lowerneck -26.1476 -3.64212 -7.25949
upperneck -4.47098 -3.0938 10.15
head 2.92693 -0.91264 4.09452
rclavicle -6.36111e-015 -1.82882e-014
rhumerus -13.4107 8.61531 -74.4467
rradius 117.166
rwrist -12.0801
rhand -4.72034 22.385
rfingers 7.12502
rthumb 21.0621 -6.49115
lclavicle -6.36111e-015 -1.82882e-014
lhumerus -5.30525 -6.17273 77.8069
lradius 113.128
lwrist 14.0499
lhand -21.9152 13.6975
lfingers 7.12502
lthumb 4.49066 43.6299
rfemur -48.2855 -1.41196 19.4888
rtibia 75.1152
rfoot -27.6554 -13.3543
rtoes -24.1598
lfemur -50.6384 -0.0246047 -15.8046
ltibia 74.3899
lfoot -30.7812 3.08289
ltoes -28.9982
